Coordinates
version=1
nRows=12
nColumns=24
inDegrees=yes

Units are S.I. units (second, meters, Newtons, ...)
Angles are in degrees.

endheader
time	pelvis_tilt	pelvis_list	pelvis_rotation	pelvis_tx	pelvis_ty	pelvis_tz	hip_flexion_r	hip_adduction_r	hip_rotation_r	knee_angle_r	ankle_angle_r	subtalar_angle_r	mtp_angle_r	hip_flexion_l	hip_adduction_l	hip_rotation_l	knee_angle_l	ankle_angle_l	subtalar_angle_l	mtp_angle_l	lumbar_extension	lumbar_bending	lumbar_rotation
      3.46000000	     -1.52674542	     -2.21570188	     -6.97715951	     -0.82443514	      0.90686851	      0.24933353	    -10.91926932	      6.73376769	     13.01546532	    -22.92319400	     24.68452289	     -8.12616312	      0.00000000	     30.64516005	     -2.28209021	     -3.12302195	    -10.46319642	     12.64276117	     -8.56944540	      0.00000000	    -12.49483634	      1.06919024	     -0.78165392
      3.46500000	     -1.55487596	     -2.02495640	     -6.93862171	     -0.81608196	      0.90568105	      0.24880528	    -11.04193118	      6.38466063	     12.45532452	    -23.59250489	     24.57386247	     -7.27760419	      0.00000000	     30.86332476	     -2.04702555	     -3.38377381	    -11.44102679	     12.32731711	     -8.73651833	      0.00000000	    -12.36180094	      0.82570846	     -0.85306126
      3.47000000	     -1.59172562	     -1.79169071	     -6.89740302	     -0.80768134	      0.90456560	      0.24828795	    -11.10932903	      5.98887375	     11.83747779	    -24.32601688	     24.38534064	     -6.42264039	      0.00000000	     31.08897871	     -1.77578128	     -3.66011782	    -12.46693600	     11.88731548	     -8.91851266	      0.00000000	    -12.20757630	      0.52900148	     -0.95228971
      3.47500000	     -1.63678902	     -1.51613877	     -6.83072871	     -0.79927654	      0.90352017	      0.24772857	    -11.10396778	      5.55322122	     11.17295677	    -25.16118705	     24.12158052	     -5.53839354	      0.00000000	     31.32569899	     -1.45564119	     -3.93467924	    -13.51933338	     11.32999460	     -9.10600733	      0.00000000	    -12.04013087	      0.18587409	     -1.07433376
      3.48000000	     -1.69662831	     -1.19839300	     -6.76285864	     -0.79089223	      0.90254867	      0.24713251	    -11.00411770	      5.06351719	     10.42408178	    -26.11184098	     23.79544815	     -4.59590888	      0.00000000	     31.58372084	     -1.09587013	     -4.19619434	    -14.59645104	     10.67559398	     -9.32900847	      0.00000000	    -11.85621872	     -0.19789799	     -1.22656648
      3.48500000	     -1.76943992	     -0.81586710	     -6.65651193	     -0.78251064	      0.90168055	      0.24656775	    -10.83607605	      4.52708830	      9.66720854	    -27.13702433	     23.34161509	     -3.74071308	      0.00000000	     31.86578692	     -0.67019033	     -4.46955357	    -15.68912642	      9.94624885	     -9.49447889	      0.00000000	    -11.65093856	     -0.67759811	     -1.41012168
      3.49000000	     -1.86086692	     -0.39366312	     -6.53838532	     -0.77417449	      0.90091689	      0.24596044	    -10.56608350	      3.94115288	      8.84744070	    -28.28022176	     22.79226630	     -2.83833726	      0.00000000	     32.17562386	     -0.20332749	     -4.71739936	    -16.79495943	      9.18216143	     -9.65328145	      0.00000000	    -11.42904917	     -1.19465435	     -1.60323177
      3.49500000	     -1.96925719	      0.06290972	     -6.39571853	     -0.76587593	      0.90026186	      0.24530591	    -10.20462747	      3.32040258	      8.00781817	    -29.52945827	     22.11069964	     -1.95309081	      0.00000000	     32.51219314	      0.30698033	     -4.93746700	    -17.91380876	      8.41896142	     -9.79981480	      0.00000000	    -11.19381537	     -1.74447314	     -1.79462199
      3.50000000	     -2.07483562	      0.58837849	     -6.24520306	     -0.75754275	      0.89970027	      0.24474176	     -9.78214063	      2.64165562	      7.19522993	    -30.87177711	     21.29673950	     -1.20824580	      0.00000000	     32.85624005	      0.87364683	     -5.16015310	    -19.07170528	      7.78649300	     -9.84477178	      0.00000000	    -10.95077145	     -2.39714467	     -2.05621209
      3.50500000	     -2.19972163	      1.09721990	     -6.08925739	     -0.74930976	      0.89923702	      0.24409574	     -9.25232659	      1.96166381	      6.35853648	    -32.33645111	     20.35048573	     -0.41309912	      0.00000000	     33.22490539	      1.43608317	     -5.32534683	    -20.23838198	      7.17906943	     -9.93498489	      0.00000000	    -10.70795994	     -3.01872593	     -2.24381869
      3.51000000	     -2.28155661	      1.65428600	     -5.91137952	     -0.74096035	      0.89892422	      0.24357113	     -8.73559671	      1.25722746	      5.60309164	    -33.84502127	     19.20682455	      0.14281795	      0.00000000	     33.53505622	      2.03971106	     -5.52125889	    -21.41438337	      6.77757095	     -9.86686667	      0.00000000	    -10.49527238	     -3.72177542	     -2.51627749
      3.51500000	     -2.40139558	      2.18548515	     -5.77978189	     -0.73278329	      0.89856015	      0.24294715	     -8.05567080	      0.53390738	      4.81870675	    -35.52905724	     18.04466592	      0.80808459	      0.00000000	     33.89661921	      2.61899645	     -5.62664231	    -22.61443365	      6.45387762	     -9.94605586	      0.00000000	    -10.27331499	     -4.37544455	     -2.68917134
